<svg xmlns="http://www.w3.org/2000/svg" width="1080" height="622" viewBox="0 0 1080 622" role="img"><rect width="100%" height="100%" rx="24" fill="#ffffff"/><text x="28" y="34" font-family="Arial" font-size="23" font-weight="700" fill="#17182b">Reach vs impressions — top 10</text><rect x="300" y="45" width="12" height="12" rx="3" fill="#5847f5"/><text x="318" y="55" font-family="Arial" font-size="11" fill="#555a70">Impressions</text><rect x="410" y="45" width="12" height="12" rx="3" fill="#0aa7a5"/><text x="428" y="55" font-family="Arial" font-size="11" fill="#555a70">Reach</text><text x="288" y="91" text-anchor="end" font-family="Arial" font-size="11" fill="#555a70">CEC Draw / Calendly Booking</text><rect x="300" y="74" width="110.2" height="14" rx="7" fill="#5847f5"/><rect x="300" y="93" width="91.6" height="14" rx="7" fill="#0aa7a5"/><text x="288" y="143" text-anchor="end" font-family="Arial" font-size="11" fill="#555a70">Stay in Canada Webinar</text><rect x="300" y="126" width="676.2" height="14" rx="7" fill="#5847f5"/><rect x="300" y="145" width="415.4" height="14" rx="7" fill="#0aa7a5"/><text x="288" y="195" text-anchor="end" font-family="Arial" font-size="11" fill="#555a70">Extend Your Stay</text><rect x="300" y="178" width="588.0" height="14" rx="7" fill="#5847f5"/><rect x="300" y="197" width="195.2" height="14" rx="7" fill="#0aa7a5"/><text x="288" y="247" text-anchor="end" font-family="Arial" font-size="11" fill="#555a70">Extend Your Stay — Arvind</text><rect x="300" y="230" width="343.3" height="14" rx="7" fill="#5847f5"/><rect x="300" y="249" width="140.9" height="14" rx="7" fill="#0aa7a5"/><text x="288" y="299" text-anchor="end" font-family="Arial" font-size="11" fill="#555a70">Masters NO IELTS</text><rect x="300" y="282" width="294.9" height="14" rx="7" fill="#5847f5"/><rect x="300" y="301" width="107.4" height="14" rx="7" fill="#0aa7a5"/><text x="288" y="351" text-anchor="end" font-family="Arial" font-size="11" fill="#555a70">Heard of RCIP</text><rect x="300" y="334" width="275.8" height="14" rx="7" fill="#5847f5"/><rect x="300" y="353" width="120.6" height="14" rx="7" fill="#0aa7a5"/><text x="288" y="403" text-anchor="end" font-family="Arial" font-size="11" fill="#555a70">Stay in Canada Webinar — Feb 26</text><rect x="300" y="386" width="570.0" height="14" rx="7" fill="#5847f5"/><rect x="300" y="405" width="445.5" height="14" rx="7" fill="#0aa7a5"/><text x="288" y="455" text-anchor="end" font-family="Arial" font-size="11" fill="#555a70">Stay in Canada Webinar — BM</text><rect x="300" y="438" width="213.3" height="14" rx="7" fill="#5847f5"/><rect x="300" y="457" width="158.8" height="14" rx="7" fill="#0aa7a5"/><text x="288" y="507" text-anchor="end" font-family="Arial" font-size="11" fill="#555a70">IELTS Masterclass — Mar 10</text><rect x="300" y="490" width="166.4" height="14" rx="7" fill="#5847f5"/><rect x="300" y="509" width="96.7" height="14" rx="7" fill="#0aa7a5"/><text x="288" y="559" text-anchor="end" font-family="Arial" font-size="11" fill="#555a70">Calendly CRS New Ad BM</text><rect x="300" y="542" width="315.0" height="14" rx="7" fill="#5847f5"/><rect x="300" y="561" width="210.6" height="14" rx="7" fill="#0aa7a5"/></svg>